<svg id="visual" viewBox="0 0 900 200" width="900" height="200" xmlns="http://www.w3.org/2000/svg" xmlns:xlink="http://www.w3.org/1999/xlink" version="1.1"><rect x="0" y="0" width="900" height="200" fill="#33312F"></rect><path d="M0 50L21.5 62.3C43 74.7 86 99.3 128.8 99.5C171.7 99.7 214.3 75.3 257.2 74.3C300 73.3 343 95.7 385.8 96.8C428.7 98 471.3 78 514.2 75.2C557 72.3 600 86.7 642.8 89C685.7 91.3 728.3 81.7 771.2 82.7C814 83.7 857 95.3 878.5 101.2L900 107L900 0L878.5 0C857 0 814 0 771.2 0C728.3 0 685.7 0 642.8 0C600 0 557 0 514.2 0C471.3 0 428.7 0 385.8 0C343 0 300 0 257.2 0C214.3 0 171.7 0 128.8 0C86 0 43 0 21.5 0L0 0Z" fill="#242323" stroke-linecap="round" stroke-linejoin="miter"></path></svg>